# Blender v2.78 (sub 0) OBJ File: ''
# www.blender.org
mtllib roomtest2.mtl
o Mesh1_Model
v 0.000000 0.000001 -5.000000
v 0.200000 0.000001 -4.800000
v 0.000000 0.000000 0.000000
v 5.000000 0.000001 -5.000000
v 0.000000 2.800001 -5.000000
v 5.000000 2.800001 -5.000000
v 0.000000 2.800000 0.000000
v 1.534670 0.996116 0.000000
v 3.524670 0.996116 0.000000
v 5.000000 0.000000 0.000000
v 5.000000 2.800000 0.000000
v 4.800000 0.000000 -0.200000
v 0.200000 0.000000 -0.200000
v 4.800000 0.000001 -4.800000
v 4.800000 0.110000 -0.200000
v 4.800000 0.110001 -4.800000
v 0.200000 0.110000 -0.200000
v 0.200000 0.110001 -4.800000
v 0.200000 2.800001 -4.800000
v 4.800000 2.800001 -4.800000
v 0.200000 2.800000 -0.200000
v 1.534670 0.996116 -0.200000
v 3.524670 0.996116 -0.200000
v 4.800000 2.800000 -0.200000
v 3.524670 1.936120 -0.200000
v 3.524670 1.936120 0.000000
v 1.534670 1.936120 0.000000
v 1.534670 1.936120 -0.200000
vt 0.0000 196.8500
vt -7.8740 188.9760
vt 0.0000 0.0000
vt -196.8500 196.8500
vt -196.8500 0.0000
vt 0.0000 0.0000
vt 0.0000 110.2360
vt -196.8500 110.2360
vt -196.8500 0.0000
vt 0.0000 110.2360
vt -196.8500 110.2360
vt 60.4201 39.2172
vt 138.7670 39.2172
vt 196.8500 0.0000
vt 196.8500 110.2360
vt 0.0000 0.0000
vt 196.8500 0.0000
vt 196.8500 110.2360
vt 0.0000 110.2360
vt -196.8500 0.0000
vt -188.9760 7.8740
vt -7.8740 7.8740
vt -188.9760 188.9760
vt 0.0000 39.2172
vt 0.0000 76.2250
vt -7.8740 76.2250
vt -7.8740 39.2172
vt 138.7670 76.2250
vt 60.4201 76.2250
vt -0.0000 76.2250
vt -0.0000 39.2172
vt 7.8740 39.2172
vt 7.8740 76.2250
vt 60.4201 -0.0000
vt 138.7670 -0.0000
vt 138.7670 7.8740
vt 60.4201 7.8740
vt 7.8740 7.8740
vt 196.8500 0.0000
vt 188.9760 7.8740
vt 0.0000 0.0000
vt 0.0000 196.8500
vt 7.8740 188.9760
vt 196.8500 196.8500
vt 188.9760 188.9760
vt -138.7670 -0.0000
vt -60.4201 -0.0000
vt -60.4201 7.8740
vt -138.7670 7.8740
vt 0.2187 5.0107
vt 0.2187 0.1969
vt 5.2493 0.1969
vt 5.2493 5.0107
vt 0.2187 5.0107
vt 0.2187 0.1969
vt 5.2493 0.1969
vt 5.2493 5.0107
vt -1.6783 1.7826
vt -0.2187 0.1969
vt -0.2187 5.0107
vt -5.2493 0.1969
vt -3.8546 1.7826
vt -5.2493 5.0107
vt -3.8546 3.4648
vt -1.6783 3.4648
vt -5.2493 5.0107
vt -5.2493 0.1969
vt -0.2187 0.1969
vt -0.2187 5.0107
vt 2.6247 2.6247
vt 0.1094 2.6247
vt 0.1094 0.1094
vt 2.6247 0.1094
vt -2.6247 0.0000
vt -0.1094 0.0000
vt -0.1094 0.0601
vt -2.6247 0.0601
vt -2.6247 0.0000
vt -0.1094 0.0000
vt -0.1094 0.0601
vt -2.6247 0.0601
vt 0.1094 0.0000
vt 2.6247 0.0000
vt 2.6247 0.0601
vt 0.1094 0.0601
vt 0.1094 0.0000
vt 2.6247 0.0000
vt 2.6247 0.0601
vt 0.1094 0.0601
vt 2.6247 2.6247
vt 0.1094 2.6247
vt 0.1094 0.1094
vt 2.6247 0.1094
vn -0.0000 -1.0000 -0.0000
vn 0.0000 0.0000 -1.0000
vn -1.0000 0.0000 0.0000
vn -0.0000 -0.0000 1.0000
vn 1.0000 0.0000 0.0000
vn 0.0000 1.0000 0.0000
usemtl FrontColor
s 1
f 1/1/1 2/2/1 3/3/1
f 2/2/1 1/1/1 4/4/1
f 4/5/2 1/6/2 5/7/2 6/8/2
f 1/9/3 3/3/3 7/10/3 5/11/3
f 3/3/4 8/12/4 7/10/4
f 8/12/4 3/3/4 9/13/4
f 10/14/4 9/13/4 3/3/4
f 9/13/4 10/14/4 11/15/4
f 10/16/5 4/17/5 6/18/5 11/19/5
f 10/20/1 12/21/1 4/4/1
f 10/20/1 13/22/1 12/21/1
f 3/3/1 13/22/1 10/20/1
f 13/22/1 3/3/1 2/2/1
f 2/2/1 4/4/1 14/23/1
f 14/23/1 4/4/1 12/21/1
f 9/24/3 26/25/3 25/26/3 23/27/3
f 9/13/4 11/15/4 26/28/4
f 26/28/4 11/15/4 27/29/4
f 7/10/4 27/29/4 11/15/4
f 7/10/4 8/12/4 27/29/4
f 27/30/5 8/31/5 22/32/5 28/33/5
f 8/34/6 9/35/6 23/36/6 22/37/6
f 21/38/6 11/39/6 24/40/6
f 21/38/6 7/41/6 11/39/6
f 7/41/6 21/38/6 5/42/6
f 19/43/6 5/42/6 21/38/6
f 5/42/6 19/43/6 6/44/6
f 6/44/6 19/43/6 20/45/6
f 6/44/6 20/45/6 11/39/6
f 24/40/6 11/39/6 20/45/6
f 26/46/1 27/47/1 28/48/1 25/49/1
usemtl Brick_Rough_Dark
f 19/50/4 18/51/4 16/52/4 20/53/4
f 21/54/5 17/55/5 18/56/5 19/57/5
f 22/58/2 17/59/2 21/60/2
f 17/59/2 22/58/2 15/61/2
f 23/62/2 15/61/2 22/58/2
f 15/61/2 23/62/2 24/63/2
f 24/63/2 23/62/2 25/64/2
f 22/58/2 21/60/2 28/65/2
f 28/65/2 21/60/2 25/64/2
f 24/63/2 25/64/2 21/60/2
f 20/66/3 16/67/3 15/68/3 24/69/3
usemtl Wood_Cherry_Original
f 14/70/6 2/71/6 13/72/6 12/73/6
f 14/74/3 12/75/3 15/76/3 16/77/3
f 12/78/2 13/79/2 17/80/2 15/81/2
f 13/82/5 2/83/5 18/84/5 17/85/5
f 2/86/4 14/87/4 16/88/4 18/89/4
f 16/90/6 18/91/6 17/92/6 15/93/6
